<mxfile host="Electron" modified="2024-08-16T06:56:29.987Z" agent="Mozilla/5.0 (Windows NT 10.0; Win64; x64) AppleWebKit/537.36 (KHTML, like Gecko) draw.io/23.1.5 Chrome/120.0.6099.109 Electron/28.1.0 Safari/537.36" etag="KrWSgqTfNPioq8A9Pybc" version="23.1.5" type="device">
  <diagram name="Page-1" id="sl-xVpkW0cE4dz9h6DmP">
    <mxGraphModel dx="1050" dy="1729" grid="1" gridSize="10" guides="1" tooltips="1" connect="1" arrows="1" fold="1" page="1" pageScale="1" pageWidth="850" pageHeight="1100" math="0" shadow="0">
      <root>
        <mxCell id="0" />
        <mxCell id="1" parent="0" />
        <mxCell id="9VyaQahV6wdHh09ofaE2-1" value="Пользователь" style="shape=umlActor;verticalLabelPosition=bottom;verticalAlign=top;html=1;" parent="1" vertex="1">
          <mxGeometry x="460" y="180" width="30" height="60" as="geometry" />
        </mxCell>
        <mxCell id="9VyaQahV6wdHh09ofaE2-2" value="Посмотреть информацию&amp;nbsp;&lt;div&gt;о товаре&lt;/div&gt;" style="ellipse;whiteSpace=wrap;html=1;" parent="1" vertex="1">
          <mxGeometry x="560" y="40" width="140" height="70" as="geometry" />
        </mxCell>
        <mxCell id="9VyaQahV6wdHh09ofaE2-3" value="Сравнить цены&amp;nbsp;&lt;div&gt;на товар&lt;/div&gt;" style="ellipse;whiteSpace=wrap;html=1;" parent="1" vertex="1">
          <mxGeometry x="250" y="40" width="140" height="70" as="geometry" />
        </mxCell>
        <mxCell id="9VyaQahV6wdHh09ofaE2-4" value="Поставить оценку&lt;div&gt;товару&lt;/div&gt;" style="ellipse;whiteSpace=wrap;html=1;" parent="1" vertex="1">
          <mxGeometry x="560" y="130" width="140" height="70" as="geometry" />
        </mxCell>
        <mxCell id="9VyaQahV6wdHh09ofaE2-9" value="" style="endArrow=none;html=1;rounded=0;entryX=0;entryY=0.5;entryDx=0;entryDy=0;exitX=0.5;exitY=0.5;exitDx=0;exitDy=0;exitPerimeter=0;edgeStyle=orthogonalEdgeStyle;" parent="1" source="9VyaQahV6wdHh09ofaE2-1" target="9VyaQahV6wdHh09ofaE2-4" edge="1">
          <mxGeometry width="50" height="50" relative="1" as="geometry">
            <mxPoint x="140" y="287.5" as="sourcePoint" />
            <mxPoint x="190" y="237.5" as="targetPoint" />
          </mxGeometry>
        </mxCell>
        <mxCell id="9VyaQahV6wdHh09ofaE2-12" value="Изменить цену&amp;nbsp;&lt;div&gt;на товар в определенном&amp;nbsp;&lt;div&gt;магазине&lt;/div&gt;&lt;/div&gt;" style="ellipse;whiteSpace=wrap;html=1;" parent="1" vertex="1">
          <mxGeometry x="250" y="220" width="140" height="70" as="geometry" />
        </mxCell>
        <mxCell id="9VyaQahV6wdHh09ofaE2-13" value="Добавить товар&amp;nbsp;&lt;div&gt;в определенный&lt;/div&gt;&lt;div&gt;магазин, если его нет&lt;/div&gt;" style="ellipse;whiteSpace=wrap;html=1;" parent="1" vertex="1">
          <mxGeometry x="250" y="130" width="140" height="70" as="geometry" />
        </mxCell>
        <mxCell id="9VyaQahV6wdHh09ofaE2-14" value="Добавить новый магазин" style="ellipse;whiteSpace=wrap;html=1;" parent="1" vertex="1">
          <mxGeometry x="560" y="220" width="140" height="70" as="geometry" />
        </mxCell>
        <mxCell id="9VyaQahV6wdHh09ofaE2-24" value="Администратор" style="shape=umlActor;verticalLabelPosition=bottom;verticalAlign=top;html=1;" parent="1" vertex="1">
          <mxGeometry x="460" y="400" width="30" height="60" as="geometry" />
        </mxCell>
        <mxCell id="9VyaQahV6wdHh09ofaE2-25" value="Добавить сертификат&lt;div&gt;соответствия&lt;/div&gt;" style="ellipse;whiteSpace=wrap;html=1;" parent="1" vertex="1">
          <mxGeometry x="250" y="350" width="140" height="70" as="geometry" />
        </mxCell>
        <mxCell id="9VyaQahV6wdHh09ofaE2-26" value="&lt;div&gt;Удалить сертификат&lt;/div&gt;&lt;div&gt;соотвествия на товар&lt;/div&gt;" style="ellipse;whiteSpace=wrap;html=1;" parent="1" vertex="1">
          <mxGeometry x="250" y="440" width="140" height="70" as="geometry" />
        </mxCell>
        <mxCell id="9VyaQahV6wdHh09ofaE2-27" value="Удалить магазин" style="ellipse;whiteSpace=wrap;html=1;" parent="1" vertex="1">
          <mxGeometry x="560" y="395" width="140" height="70" as="geometry" />
        </mxCell>
        <mxCell id="9VyaQahV6wdHh09ofaE2-28" value="" style="endArrow=none;html=1;rounded=0;entryX=1;entryY=0.5;entryDx=0;entryDy=0;exitX=0.5;exitY=0.5;exitDx=0;exitDy=0;exitPerimeter=0;edgeStyle=orthogonalEdgeStyle;" parent="1" source="9VyaQahV6wdHh09ofaE2-24" target="9VyaQahV6wdHh09ofaE2-25" edge="1">
          <mxGeometry width="50" height="50" relative="1" as="geometry">
            <mxPoint x="140" y="660" as="sourcePoint" />
            <mxPoint x="190" y="610" as="targetPoint" />
          </mxGeometry>
        </mxCell>
        <mxCell id="9VyaQahV6wdHh09ofaE2-29" value="" style="endArrow=none;html=1;rounded=0;entryX=1;entryY=0.5;entryDx=0;entryDy=0;exitX=0.5;exitY=0.5;exitDx=0;exitDy=0;exitPerimeter=0;edgeStyle=orthogonalEdgeStyle;" parent="1" source="9VyaQahV6wdHh09ofaE2-24" target="9VyaQahV6wdHh09ofaE2-26" edge="1">
          <mxGeometry width="50" height="50" relative="1" as="geometry">
            <mxPoint x="485" y="580" as="sourcePoint" />
            <mxPoint x="380" y="505" as="targetPoint" />
          </mxGeometry>
        </mxCell>
        <mxCell id="9VyaQahV6wdHh09ofaE2-30" value="Изменить статус соответствия сертификата&amp;nbsp;&lt;div&gt;на товар&lt;/div&gt;" style="ellipse;whiteSpace=wrap;html=1;" parent="1" vertex="1">
          <mxGeometry x="560" y="310" width="140" height="70" as="geometry" />
        </mxCell>
        <mxCell id="9VyaQahV6wdHh09ofaE2-31" value="" style="endArrow=none;html=1;rounded=0;entryX=0;entryY=0.5;entryDx=0;entryDy=0;exitX=0.5;exitY=0.5;exitDx=0;exitDy=0;exitPerimeter=0;edgeStyle=orthogonalEdgeStyle;" parent="1" source="9VyaQahV6wdHh09ofaE2-24" target="9VyaQahV6wdHh09ofaE2-27" edge="1">
          <mxGeometry width="50" height="50" relative="1" as="geometry">
            <mxPoint x="140" y="560" as="sourcePoint" />
            <mxPoint x="190" y="510" as="targetPoint" />
          </mxGeometry>
        </mxCell>
        <mxCell id="9VyaQahV6wdHh09ofaE2-32" value="" style="endArrow=none;html=1;rounded=0;entryX=0;entryY=0.5;entryDx=0;entryDy=0;exitX=0.5;exitY=0.5;exitDx=0;exitDy=0;exitPerimeter=0;edgeStyle=orthogonalEdgeStyle;" parent="1" source="9VyaQahV6wdHh09ofaE2-24" target="9VyaQahV6wdHh09ofaE2-30" edge="1">
          <mxGeometry width="50" height="50" relative="1" as="geometry">
            <mxPoint x="470" y="570" as="sourcePoint" />
            <mxPoint x="560" y="485" as="targetPoint" />
          </mxGeometry>
        </mxCell>
        <mxCell id="9VyaQahV6wdHh09ofaE2-33" value="" style="endArrow=block;endSize=16;endFill=0;html=1;rounded=0;exitX=0.5;exitY=0;exitDx=0;exitDy=0;exitPerimeter=0;" parent="1" source="9VyaQahV6wdHh09ofaE2-24" edge="1">
          <mxGeometry width="160" relative="1" as="geometry">
            <mxPoint x="410" y="560" as="sourcePoint" />
            <mxPoint x="475" y="270" as="targetPoint" />
          </mxGeometry>
        </mxCell>
        <mxCell id="9VyaQahV6wdHh09ofaE2-34" value="&lt;div&gt;Удалить сертификат&lt;/div&gt;&lt;div&gt;соотвествия&lt;/div&gt;" style="ellipse;whiteSpace=wrap;html=1;" parent="1" vertex="1">
          <mxGeometry x="560" y="480" width="140" height="70" as="geometry" />
        </mxCell>
        <mxCell id="I88iATkDxMM51PSCaHRB-1" value="" style="endArrow=none;html=1;rounded=0;entryX=0;entryY=0.5;entryDx=0;entryDy=0;exitX=0.5;exitY=0.5;exitDx=0;exitDy=0;exitPerimeter=0;edgeStyle=orthogonalEdgeStyle;" parent="1" source="9VyaQahV6wdHh09ofaE2-1" target="9VyaQahV6wdHh09ofaE2-14" edge="1">
          <mxGeometry relative="1" as="geometry">
            <mxPoint x="540" y="320" as="sourcePoint" />
            <mxPoint x="700" y="370" as="targetPoint" />
          </mxGeometry>
        </mxCell>
        <mxCell id="E_Oxkr6pTNfZofYcjmpx-1" value="гость" style="shape=umlActor;verticalLabelPosition=bottom;verticalAlign=top;html=1;outlineConnect=0;" parent="1" vertex="1">
          <mxGeometry x="460" y="10" width="30" height="60" as="geometry" />
        </mxCell>
        <mxCell id="E_Oxkr6pTNfZofYcjmpx-2" value="" style="endArrow=none;html=1;rounded=0;entryX=1;entryY=0.5;entryDx=0;entryDy=0;exitX=0.5;exitY=0.5;exitDx=0;exitDy=0;exitPerimeter=0;edgeStyle=orthogonalEdgeStyle;" parent="1" source="E_Oxkr6pTNfZofYcjmpx-1" target="9VyaQahV6wdHh09ofaE2-3" edge="1">
          <mxGeometry width="50" height="50" relative="1" as="geometry">
            <mxPoint x="390" y="140" as="sourcePoint" />
            <mxPoint x="440" y="90" as="targetPoint" />
          </mxGeometry>
        </mxCell>
        <mxCell id="E_Oxkr6pTNfZofYcjmpx-3" value="" style="endArrow=none;html=1;rounded=0;entryX=0;entryY=0.5;entryDx=0;entryDy=0;exitX=0.5;exitY=0.5;exitDx=0;exitDy=0;exitPerimeter=0;edgeStyle=orthogonalEdgeStyle;" parent="1" source="E_Oxkr6pTNfZofYcjmpx-1" target="9VyaQahV6wdHh09ofaE2-2" edge="1">
          <mxGeometry width="50" height="50" relative="1" as="geometry">
            <mxPoint x="460" y="150" as="sourcePoint" />
            <mxPoint x="510" y="100" as="targetPoint" />
          </mxGeometry>
        </mxCell>
        <mxCell id="E_Oxkr6pTNfZofYcjmpx-6" value="" style="endArrow=block;endSize=16;endFill=0;html=1;rounded=0;exitX=0.5;exitY=0;exitDx=0;exitDy=0;exitPerimeter=0;" parent="1" source="9VyaQahV6wdHh09ofaE2-1" edge="1">
          <mxGeometry width="160" relative="1" as="geometry">
            <mxPoint x="474.57" y="290" as="sourcePoint" />
            <mxPoint x="474.57" y="100" as="targetPoint" />
          </mxGeometry>
        </mxCell>
        <mxCell id="E_Oxkr6pTNfZofYcjmpx-7" value="" style="endArrow=none;html=1;rounded=0;entryX=1;entryY=0.5;entryDx=0;entryDy=0;exitX=0.5;exitY=0.5;exitDx=0;exitDy=0;exitPerimeter=0;edgeStyle=orthogonalEdgeStyle;" parent="1" source="9VyaQahV6wdHh09ofaE2-1" target="9VyaQahV6wdHh09ofaE2-13" edge="1">
          <mxGeometry width="50" height="50" relative="1" as="geometry">
            <mxPoint x="230" y="190" as="sourcePoint" />
            <mxPoint x="280" y="140" as="targetPoint" />
          </mxGeometry>
        </mxCell>
        <mxCell id="E_Oxkr6pTNfZofYcjmpx-8" value="" style="endArrow=none;html=1;rounded=0;entryX=0.5;entryY=0.5;entryDx=0;entryDy=0;entryPerimeter=0;exitX=1;exitY=0.5;exitDx=0;exitDy=0;edgeStyle=orthogonalEdgeStyle;" parent="1" source="9VyaQahV6wdHh09ofaE2-12" target="9VyaQahV6wdHh09ofaE2-1" edge="1">
          <mxGeometry width="50" height="50" relative="1" as="geometry">
            <mxPoint x="280" y="370" as="sourcePoint" />
            <mxPoint x="330" y="320" as="targetPoint" />
          </mxGeometry>
        </mxCell>
        <mxCell id="E_Oxkr6pTNfZofYcjmpx-9" value="" style="endArrow=none;html=1;rounded=0;entryX=0;entryY=0.5;entryDx=0;entryDy=0;exitX=0.5;exitY=0.5;exitDx=0;exitDy=0;exitPerimeter=0;edgeStyle=orthogonalEdgeStyle;" parent="1" source="9VyaQahV6wdHh09ofaE2-24" target="9VyaQahV6wdHh09ofaE2-34" edge="1">
          <mxGeometry width="50" height="50" relative="1" as="geometry">
            <mxPoint x="450" y="550" as="sourcePoint" />
            <mxPoint x="500" y="500" as="targetPoint" />
          </mxGeometry>
        </mxCell>
        <mxCell id="E_Oxkr6pTNfZofYcjmpx-10" value="Зарегистрироваться" style="ellipse;whiteSpace=wrap;html=1;" parent="1" vertex="1">
          <mxGeometry x="250" y="-40" width="140" height="70" as="geometry" />
        </mxCell>
        <mxCell id="E_Oxkr6pTNfZofYcjmpx-11" value="Войти" style="ellipse;whiteSpace=wrap;html=1;" parent="1" vertex="1">
          <mxGeometry x="560" y="-40" width="140" height="70" as="geometry" />
        </mxCell>
        <mxCell id="E_Oxkr6pTNfZofYcjmpx-13" value="" style="endArrow=none;html=1;rounded=0;entryX=0;entryY=0.5;entryDx=0;entryDy=0;exitX=0.5;exitY=0.5;exitDx=0;exitDy=0;exitPerimeter=0;edgeStyle=orthogonalEdgeStyle;" parent="1" source="E_Oxkr6pTNfZofYcjmpx-1" target="E_Oxkr6pTNfZofYcjmpx-11" edge="1">
          <mxGeometry width="50" height="50" relative="1" as="geometry">
            <mxPoint x="490" y="-55" as="sourcePoint" />
            <mxPoint x="520" y="30" as="targetPoint" />
          </mxGeometry>
        </mxCell>
        <mxCell id="E_Oxkr6pTNfZofYcjmpx-14" value="" style="endArrow=none;html=1;rounded=0;entryX=1;entryY=0.5;entryDx=0;entryDy=0;exitX=0.5;exitY=0.5;exitDx=0;exitDy=0;exitPerimeter=0;edgeStyle=orthogonalEdgeStyle;" parent="1" source="E_Oxkr6pTNfZofYcjmpx-1" target="E_Oxkr6pTNfZofYcjmpx-10" edge="1">
          <mxGeometry width="50" height="50" relative="1" as="geometry">
            <mxPoint x="440" y="10" as="sourcePoint" />
            <mxPoint x="440" y="-20" as="targetPoint" />
          </mxGeometry>
        </mxCell>
      </root>
    </mxGraphModel>
  </diagram>
</mxfile>
